<?xml version="1.0" ?><svg viewBox="0 0 32 32" xmlns="http://www.w3.org/2000/svg"><defs><style>.cls-1{fill:#d8e1ef;}.cls-2{fill:#10c9c3;}.cls-3{fill:#0E8388;}</style></defs><title/><g data-name="Card Lock" id="Card_Lock"><rect class="cls-1" height="18" rx="3" ry="3" width="26" x="2" y="5"/><rect class="cls-2" height="3" width="26" x="2" y="9"/><path class="cls-2" d="M10,19H7a1,1,0,0,1,0-2h3a1,1,0,0,1,0,2Z"/><path class="cls-3" d="M27,19H23a1,1,0,0,1-1-1V16a3,3,0,0,1,6,0v2A1,1,0,0,1,27,19Zm-3-2h2V16a1,1,0,0,0-2,0Z"/><rect class="cls-2" height="10" rx="2" ry="2" width="10" x="20" y="17"/><path class="cls-3" d="M25,24a2,2,0,1,1,2-2A2,2,0,0,1,25,24Zm0-2Z"/></g></svg>