<?xml version="1.0" ?><svg viewBox="0 0 32 32" xmlns="http://www.w3.org/2000/svg"><defs><style>.cls-1{fill:#0E8388;}.cls-2{fill:#10c9c3;}</style></defs><title/><g data-name="Share" id="Share-2"><path class="cls-1" d="M13.41,15.59a1,1,0,0,1-.7-.3,1,1,0,0,1,0-1.41l5.17-5.17a1,1,0,1,1,1.41,1.41l-5.17,5.17A1,1,0,0,1,13.41,15.59Z"/><path class="cls-1" d="M18.59,23.59a1,1,0,0,1-.71-.3l-5.17-5.17a1,1,0,1,1,1.41-1.41l5.17,5.17a1,1,0,0,1,0,1.41A1,1,0,0,1,18.59,23.59Z"/><circle class="cls-2" cx="20" cy="8" r="3"/><circle class="cls-2" cx="12" cy="16" r="3"/><circle class="cls-2" cx="20" cy="24" r="3"/></g></svg>